<svg xmlns="http://www.w3.org/2000/svg" version="1.1" width="48" height="48" viewBox="0 0 256 256" xml:space="preserve">

<defs>
</defs>
<g style="stroke: none; stroke-width: 0; stroke-dasharray: none; stroke-linecap: butt; stroke-linejoin: miter; stroke-miterlimit: 10; fill: none; fill-rule: nonzero; opacity: 1;" transform="translate(1.4065934065934016 1.4065934065934016) scale(2.81 2.81)" >
	<path d="M 55.924 69.479 H 6.402 C 2.866 69.479 0 66.612 0 63.076 V 26.924 c 0 -3.536 2.866 -6.402 6.402 -6.402 h 49.522 c 3.536 0 6.402 2.866 6.402 6.402 v 36.152 C 62.326 66.612 59.46 69.479 55.924 69.479 z" style="stroke: none; stroke-width: 1; stroke-dasharray: none; stroke-linecap: butt; stroke-linejoin: miter; stroke-miterlimit: 10; fill: currentColor; fill-rule: nonzero; opacity: 1;" transform=" matrix(1 0 0 1 0 0) " stroke-linecap="round" />
	<path d="M 84.501 61.379 l -17.991 -6.39 V 35.011 l 17.991 -6.39 C 87.183 27.669 90 29.658 90 32.504 v 24.993 C 90 60.342 87.183 62.331 84.501 61.379 z" style="stroke: none; stroke-width: 1; stroke-dasharray: none; stroke-linecap: butt; stroke-linejoin: miter; stroke-miterlimit: 10; fill: currentColor; fill-rule: nonzero; opacity: 1;" transform=" matrix(1 0 0 1 0 0) " stroke-linecap="round" />
</g>
</svg>
