<svg width="175" height="40" viewBox="0 0 175 40" fill="none" xmlns="http://www.w3.org/2000/svg">
<path d="M174.879 14.0981C167.123 14.0981 160.836 7.80423 160.836 0.0402809C160.836 7.80423 154.548 14.0981 146.792 14.0981C154.548 14.0981 160.836 20.3921 160.836 28.156C160.836 28.1963 160.836 28.2366 160.835 28.2769H160.836C160.836 28.2529 160.836 28.2289 160.836 28.2049C160.836 28.1886 160.836 28.1723 160.836 28.156C160.836 20.3921 167.123 14.0981 174.879 14.0981Z" fill="white"/>
<path d="M174.879 14.0981C174.92 14.0981 174.96 14.0983 175 14.0987V14.0976C174.96 14.098 174.92 14.0981 174.879 14.0981Z" fill="white"/>
<path fill-rule="evenodd" clip-rule="evenodd" d="M82.4871 14.1246H87.0486V39.619H82.4871V38.614C81.0472 39.4932 79.3554 39.9997 77.5454 39.9997C72.297 39.9997 68.0423 35.7407 68.0423 30.4869C68.0423 25.2331 72.297 20.9741 77.5454 20.9741C79.3554 20.9741 81.0472 21.4806 82.4871 22.3598V14.1246ZM77.5454 35.4336C80.2746 35.4336 82.4871 33.2189 82.4871 30.4869C82.4871 27.755 80.2746 25.5403 77.5454 25.5403C74.8162 25.5403 72.6038 27.755 72.6038 30.4869C72.6038 33.2189 74.8162 35.4336 77.5454 35.4336Z" fill="white"/>
<path d="M40.2716 18.8919C40.8312 19.4276 41.488 19.6955 42.2422 19.6955C43.0207 19.6955 43.6775 19.4276 44.2127 18.8919C44.748 18.3318 45.0156 17.6742 45.0156 16.9193C45.0156 16.1644 44.748 15.519 44.2127 14.9832C43.6775 14.4475 43.0207 14.1796 42.2422 14.1796C41.488 14.1796 40.8312 14.4475 40.2716 14.9832C39.7364 15.519 39.4688 16.1644 39.4688 16.9193C39.4688 17.6742 39.7364 18.3318 40.2716 18.8919Z" fill="white"/>
<path d="M39.9432 39.6191H44.5777V21.595H39.9432V39.6191Z" fill="white"/>
<path d="M61.0695 39.6191H65.704V26.7822C65.704 25.0288 65.2174 23.6529 64.2443 22.6544C63.2955 21.6559 61.8723 21.1567 59.9747 21.1567C57.396 21.1567 55.3402 22.0699 53.8076 23.8964V21.595H49.1731V39.6191H53.8076V27.3667C54.805 25.9785 56.1431 25.2845 57.8217 25.2845C59.9869 25.2845 61.0695 26.3804 61.0695 28.5721V39.6191Z" fill="white"/>
<path d="M93.9867 19.6955C93.2325 19.6955 92.5757 19.4276 92.0161 18.8919C91.4809 18.3318 91.2133 17.6742 91.2133 16.9193C91.2133 16.1644 91.4809 15.519 92.0161 14.9832C92.5757 14.4475 93.2325 14.1796 93.9867 14.1796C94.7652 14.1796 95.422 14.4475 95.9572 14.9832C96.4925 15.519 96.7601 16.1644 96.7601 16.9193C96.7601 17.6742 96.4925 18.3318 95.9572 18.8919C95.422 19.4276 94.7652 19.6955 93.9867 19.6955Z" fill="white"/>
<path d="M96.3222 39.6191H91.6877V21.595H96.3222V39.6191Z" fill="white"/>
<path d="M102.852 38.9464C104.263 39.4335 105.735 39.677 107.267 39.677C109.651 39.677 111.512 39.1534 112.85 38.1062C114.213 37.0347 114.894 35.671 114.894 34.015C114.894 32.8947 114.639 31.945 114.128 31.1657C113.617 30.3864 112.972 29.8263 112.194 29.4854C111.415 29.1201 110.576 28.8157 109.676 28.5721C108.776 28.3042 107.936 28.1094 107.158 27.9877C106.379 27.8659 105.735 27.6832 105.224 27.4397C104.713 27.1718 104.457 26.8431 104.457 26.4534C104.457 25.942 104.713 25.528 105.224 25.2114C105.735 24.8705 106.404 24.7 107.231 24.7C108.277 24.7 109.262 24.8948 110.187 25.2845C111.135 25.6741 111.89 26.1612 112.449 26.7457L114.31 23.5676C112.291 21.9603 109.919 21.1567 107.194 21.1567C104.956 21.1567 103.192 21.6924 101.903 22.764C100.614 23.8355 99.9688 25.1506 99.9688 26.7091C99.9688 27.805 100.224 28.7304 100.735 29.4854C101.27 30.2159 101.915 30.7517 102.669 31.0926C103.448 31.4336 104.287 31.7258 105.187 31.9693C106.112 32.2129 106.951 32.3955 107.705 32.5173C108.484 32.639 109.128 32.846 109.639 33.1383C110.174 33.4062 110.442 33.7593 110.442 34.1976C110.442 34.7821 110.187 35.2448 109.676 35.5857C109.189 35.9267 108.459 36.0971 107.486 36.0971C106.44 36.0971 105.333 35.8536 104.165 35.3666C102.998 34.8795 102.073 34.3194 101.392 33.6862L99.3849 36.9373C100.309 37.7897 101.465 38.4594 102.852 38.9464Z" fill="white"/>
<path fill-rule="evenodd" clip-rule="evenodd" d="M37.2523 30.4869C37.2523 35.7407 32.9977 39.9997 27.7492 39.9997C22.5008 39.9997 18.2461 35.7407 18.2461 30.4869C18.2461 25.2331 22.5008 20.9741 27.7492 20.9741C32.9977 20.9741 37.2523 25.2331 37.2523 30.4869ZM32.6908 30.4869C32.6908 33.2189 30.4784 35.4336 27.7492 35.4336C25.02 35.4336 22.8075 33.2189 22.8075 30.4869C22.8075 27.755 25.02 25.5403 27.7492 25.5403C30.4784 25.5403 32.6908 27.755 32.6908 30.4869Z" fill="white"/>
<path fill-rule="evenodd" clip-rule="evenodd" d="M154.331 30.4869C154.331 35.7407 150.076 39.9997 144.828 39.9997C139.579 39.9997 135.325 35.7407 135.325 30.4869C135.325 25.2331 139.579 20.9741 144.828 20.9741C150.076 20.9741 154.331 25.2331 154.331 30.4869ZM149.769 30.4869C149.769 33.2189 147.557 35.4336 144.828 35.4336C142.098 35.4336 139.886 33.2189 139.886 30.4869C139.886 27.755 142.098 25.5403 144.828 25.5403C147.557 25.5403 149.769 27.755 149.769 30.4869Z" fill="white"/>
<path d="M9.50311 35.4339C11.1101 35.4339 12.5379 34.666 13.4404 33.4769L16.6814 36.7212C14.939 38.7299 12.3693 40 9.50312 40C4.25469 40 0 35.741 0 30.4872C0 25.2334 4.25469 20.9744 9.50312 20.9744C12.2723 20.9744 14.7649 22.16 16.5018 24.0519L13.2708 27.2862C12.3643 26.2182 11.0128 25.5405 9.50311 25.5405C6.77392 25.5405 4.56148 27.7552 4.56148 30.4872C4.56148 33.2192 6.77392 35.4339 9.50311 35.4339Z" fill="white"/>
<path d="M130.519 33.4769C129.616 34.666 128.189 35.4339 126.582 35.4339C123.852 35.4339 121.64 33.2192 121.64 30.4872C121.64 27.7552 123.852 25.5405 126.582 25.5405C128.091 25.5405 129.443 26.2182 130.349 27.2862L133.58 24.0519C131.843 22.16 129.351 20.9744 126.582 20.9744C121.333 20.9744 117.078 25.2334 117.078 30.4872C117.078 35.741 121.333 40 126.582 40C129.448 40 132.017 38.7299 133.76 36.7213L130.519 33.4769Z" fill="white"/>
</svg>
